# xmcd
#
# Track frame offsets:
#	150
#	10921
#	21167
#	29910
#	38785
#	50566
#	61576
#	72478
#	81470
#	90214
#	104654
#	119491
#	132280
#	144591
#	153610
#	164716
#	176796
#	187465
#	196321
#	207248
#	222170
#	232862
#	239878
#	249183
#	257711
#	266720
#	279645
#	290825
#	299845
#	312036
#	323280
#
# Disc length: 4428 seconds
#
# Revision: 0
# Processed by: cddbd v1.5.2PL0 Copyright (c) Steve Scherf et al.
# Submitted via: EZCDAudioConverter 2.1.7.1
#
DISCID=eb114a1f
DTITLE=V/A - 61 Classics From The Cramps' Crazy Collection 1/2
DYEAR=1900
DGENRE=
TTITLE0=Peanuts Wilson - Cast Iron Arm
TTITLE1=Ray Harris - Come On Little Mama
TTITLE2=Gene Lamarr - That Crazy Little House On The Hill
TTITLE3=Betty McQuade - Blue Train
TTITLE4=Sparkle Moore - Tiger
TTITLE5=Fabian - Tiger
TTITLE6=Grace Tennessee - Pow Wow
TTITLE7=Original Starfires - Fender Bender
TTITLE8=Joe Clay - Did You Mean Jellybean
TTITLE9=Andre Williams - Pass The Biscuits Please
TTITLE10=Stan Freberg - John And Marsha
TTITLE11=Carl Perkins - Let The Jukebox Keep Playing
TTITLE12=Homer Denison Jr. - Chickie Run
TTITLE13=Ron Haydock - 99 Chicks
TTITLE14=Earl Wade - I Dig Rock N' Roll
TTITLE15=Danny Dell and The Trends - Froggy
TTITLE16=Dial Tones - Boss
TTITLE17=Moses Longpiece - Slide Her Under The Door
TTITLE18=The Phantom - Whisper Your Love
TTITLE19=The Flamingos - Only Have Eyes For You
TTITLE20=Jackie and The Starlites - Valerie
TTITLE21=The Ideals - Knee Socks
TTITLE22=Marvin and Johnny  - Ding Dong Baby
TTITLE23=Kenny Owen - I Got The Bug
TTITLE24=Gene Summers - Taboo
TTITLE25=Young Jessie with The Flairs - Lonesome Desert
TTITLE26=The Revels - Midnight Stroll
TTITLE27=Johnny Burnette Trio - Eager Beaver Baby
TTITLE28=Edwin Bruce - Sweet Woman
TTITLE29=Sid King and The Five Strings - Let 'Er Roll
TTITLE30=Billy Ward and The Dominoes - Jennie Lee
EXTD=
EXTT0=
EXTT1=
EXTT2=
EXTT3=
EXTT4=
EXTT5=
EXTT6=
EXTT7=
EXTT8=
EXTT9=
EXTT10=
EXTT11=
EXTT12=
EXTT13=
EXTT14=
EXTT15=
EXTT16=
EXTT17=
EXTT18=
EXTT19=
EXTT20=
EXTT21=
EXTT22=
EXTT23=
EXTT24=
EXTT25=
EXTT26=
EXTT27=
EXTT28=
EXTT29=
EXTT30=
PLAYORDER=
